<svg xmlns="http://www.w3.org/2000/svg" viewBox="0 0 410 404" fill="none">
  <path d="M399.641 59.5246L215.643 388.545C211.844 395.338 202.084 395.378 198.228 388.62L10.5818 59.5563C6.38087 52.1896 12.6806 43.2665 21.0281 44.7586L205.223 77.6824C206.398 77.8924 207.601 77.8905 208.776 77.6768L389.119 44.8058C397.439 43.2894 403.768 52.1436 399.641 59.5246Z" fill="url(#paint0_linear)"/>
  <path d="M292.965 1.5744L156.789 28.2552C154.563 28.6937 152.906 30.5903 152.771 32.8528L144.395 174.33C144.198 177.69 147.477 180.184 150.652 179.098L188.42 166.271C191.884 165.09 195.467 167.8 195.023 171.422L186.238 244.644C185.776 248.38 189.798 251.181 193.141 249.36L214.747 237.658C218.078 235.845 222.111 238.632 221.68 242.356L211.043 331.97C210.475 336.847 216.635 339.509 219.541 335.497L221.5 332.79L323.961 112.683C325.546 109.27 322.514 105.522 318.824 106.26L280.927 113.901C277.459 114.575 274.659 111.397 275.722 108.006L307.273 4.89679C308.339 1.49556 305.52 -1.69005 302.03 -0.981223Z" fill="url(#paint1_linear)"/>
  <defs>
    <linearGradient id="paint0_linear" x1="6.00017" y1="32.9999" x2="235" y2="344" gradientUnits="userSpaceOnUse">
      <stop stop-color="#41D1FF"/>
      <stop offset="1" stop-color="#BD34FE"/>
    </linearGradient>
    <linearGradient id="paint1_linear" x1="194.651" y1="8.81818" x2="236.076" y2="292.989" gradientUnits="userSpaceOnUse">
      <stop stop-color="#FFEA83"/>
      <stop offset="0.0833333" stop-color="#FFDD35"/>
      <stop offset="1" stop-color="#FFA800"/>
    </linearGradient>
  </defs>
</svg>
